<?xml version="1.0" encoding="UTF-8" standalone="no"?>
<svg
   xmlns:dc="http://purl.org/dc/elements/1.1/"
   xmlns:cc="http://creativecommons.org/ns#"
   xmlns:rdf="http://www.w3.org/1999/02/22-rdf-syntax-ns#"
   xmlns:svg="http://www.w3.org/2000/svg"
   xmlns="http://www.w3.org/2000/svg"
   xmlns:sodipodi="http://sodipodi.sourceforge.net/DTD/sodipodi-0.dtd"
   xmlns:inkscape="http://www.inkscape.org/namespaces/inkscape"
   viewBox="0 0 512 512"
   version="1.1"
   id="svg4"
   sodipodi:docname="cloud-upload-alt.svg"
   width="512"
   height="512"
   inkscape:version="1.0.2 (e86c870879, 2021-01-15)">
  <metadata
     id="metadata10">
    <rdf:RDF>
      <cc:Work
         rdf:about="">
        <dc:format>image/svg+xml</dc:format>
        <dc:type
           rdf:resource="http://purl.org/dc/dcmitype/StillImage" />
        <dc:title></dc:title>
      </cc:Work>
    </rdf:RDF>
  </metadata>
  <defs
     id="defs8" />
  <sodipodi:namedview
     pagecolor="#ffffff"
     bordercolor="#666666"
     borderopacity="1"
     objecttolerance="10"
     gridtolerance="10"
     guidetolerance="10"
     inkscape:pageopacity="0"
     inkscape:pageshadow="2"
     inkscape:window-width="1366"
     inkscape:window-height="683"
     id="namedview6"
     showgrid="false"
     inkscape:zoom="0.71677426"
     inkscape:cx="332.00341"
     inkscape:cy="248.03178"
     inkscape:window-x="0"
     inkscape:window-y="0"
     inkscape:window-maximized="1"
     inkscape:current-layer="svg4" />
  <!-- Font Awesome Free 5.15.3 by @fontawesome - https://fontawesome.com License - https://fontawesome.com/license/free (Icons: CC BY 4.0, Fonts: SIL OFL 1.1, Code: MIT License) -->
  <path
     d="m 430.08,234.61875 c 3.28,-9.60134 5.12,-20.1 5.12,-31.04732 0,-47.55804 -34.4,-86.14286 -76.8,-86.14286 -15.76,0 -30.48,5.38393 -42.64,14.53661 C 293.6,88.89375 252.24,60 204.8,60 c -70.72,0 -128,64.24821 -128,143.57143 0,2.42277 0.08,4.84553 0.16,7.2683 C 32.16,228.51696 0,276.43393 0,332.78571 0,404.12277 51.6,462 115.2,462 H 409.6 C 466.16,462 512,410.58348 512,347.14286 512,291.59866 476.8,245.20714 430.08,234.61875 Z M 314.72,289.71429 H 262.4 v 100.5 c 0,7.89642 -5.76,14.35714 -12.8,14.35714 h -38.4 c -7.04,0 -12.8,-6.46072 -12.8,-14.35714 v -100.5 h -52.32 c -11.44,0 -17.12,-15.43393 -9.04,-24.49688 l 84.32,-94.57768 c 4.96,-5.56339 13.12,-5.56339 18.08,0 l 84.32,94.57768 c 8.08,9.06295 2.32,24.49688 -9.04,24.49688 z"
     id="path2"
     style="stroke-width:0.847264" />
</svg>
