<?xml version="1.0" encoding="UTF-8" standalone="no"?>
<svg
   xmlns:dc="http://purl.org/dc/elements/1.1/"
   xmlns:cc="http://creativecommons.org/ns#"
   xmlns:rdf="http://www.w3.org/1999/02/22-rdf-syntax-ns#"
   xmlns:svg="http://www.w3.org/2000/svg"
   xmlns="http://www.w3.org/2000/svg"
   xmlns:sodipodi="http://sodipodi.sourceforge.net/DTD/sodipodi-0.dtd"
   xmlns:inkscape="http://www.inkscape.org/namespaces/inkscape"
   viewBox="0 0 512 512"
   version="1.1"
   id="svg4"
   sodipodi:docname="theater-masks.svg"
   width="512"
   height="512"
   inkscape:version="1.0.2 (e86c870879, 2021-01-15)">
  <metadata
     id="metadata10">
    <rdf:RDF>
      <cc:Work
         rdf:about="">
        <dc:format>image/svg+xml</dc:format>
        <dc:type
           rdf:resource="http://purl.org/dc/dcmitype/StillImage" />
        <dc:title></dc:title>
      </cc:Work>
    </rdf:RDF>
  </metadata>
  <defs
     id="defs8" />
  <sodipodi:namedview
     pagecolor="#ffffff"
     bordercolor="#666666"
     borderopacity="1"
     objecttolerance="10"
     gridtolerance="10"
     guidetolerance="10"
     inkscape:pageopacity="0"
     inkscape:pageshadow="2"
     inkscape:window-width="1366"
     inkscape:window-height="683"
     id="namedview6"
     showgrid="false"
     inkscape:zoom="0.50683594"
     inkscape:cx="394.3986"
     inkscape:cy="347.63114"
     inkscape:window-x="0"
     inkscape:window-y="0"
     inkscape:window-maximized="1"
     inkscape:current-layer="svg4" />
  <!-- Font Awesome Free 5.15.3 by @fontawesome - https://fontawesome.com License - https://fontawesome.com/license/free (Icons: CC BY 4.0, Fonts: SIL OFL 1.1, Code: MIT License) -->
  <path
     d="m 165.48868,252.47882 c -28.70378,8.20479 -47.95964,32.34806 -46.02366,58.1794 9.11994,-9.98707 23.04783,-18.60799 39.91971,-24.27675 z M 76.649344,291.6184 51.265534,150.67664 c -0.231998,-1.27193 0.223998,-2.05708 0.191999,-2.08064 46.207653,-25.17182 98.495267,-38.48006 151.206867,-38.48006 1.28799,0 2.58398,0.13348 3.87997,0.14918 11.15992,-10.575935 25.38381,-17.924911 41.27169,-20.413826 15.11189,-2.371145 30.43977,-3.57242 45.74366,-4.176983 C 285.56778,74.721509 273.97587,66.650197 260.14397,64.475339 241.01611,61.483928 221.79226,60 202.6564,60 141.32886,60 80.817313,75.247557 26.561719,104.8005 7.2258646,115.33717 -3.1340578,137.32128 0.84191245,159.38392 L 26.225722,300.32568 c 11.383914,63.22005 109.063188,111.55371 163.558778,111.55371 2.87198,0 5.39996,-0.36118 8.00794,-0.62812 C 186.97652,397.84096 174.64061,379.46851 166.19267,358.19102 128.10496,347.99982 81.345309,317.66173 76.649344,291.6184 Z M 154.68876,183.69208 c -0.58399,-3.23481 -1.78399,-6.17911 -3.25597,-8.95068 -6.59996,6.99566 -16.53588,12.36607 -28.25579,14.3839 -11.71992,2.02568 -22.93583,0.31405 -31.583768,-4.05921 -0.415997,3.09347 -0.511996,6.26547 0.072,9.50028 3.071977,17.03768 19.663858,28.41447 37.071728,25.41521 17.39986,-2.99926 29.02378,-19.25181 25.9518,-36.2895 z m 330.74952,-28.7678 c -71.18346,-38.77056 -153.14285,-52.92676 -233.58225,-40.3173 -21.84783,3.42324 -39.2637,20.61797 -43.23167,42.6806 l -25.38381,140.94176 c -12.31191,68.34706 76.22343,154.10083 126.64705,162.80025 50.42362,8.70729 163.57477,-42.23306 175.88668,-110.58011 l 25.38381,-140.94176 c 3.97597,-22.07049 -6.38395,-44.05461 -25.71981,-54.58344 z m -218.59036,76.00225 c 3.07198,-17.03769 19.66385,-28.41448 37.07172,-25.40736 17.40787,3.00711 29.02378,19.25181 25.95981,36.2895 -0.584,3.2348 -1.78399,6.17911 -3.25598,8.95068 -6.59995,-6.99566 -16.53587,-12.36607 -28.25579,-14.3839 -11.71991,-2.02568 -22.93582,-0.31406 -31.58376,4.05921 -0.424,-3.10133 -0.52,-6.27333 0.064,-9.50813 z m 56.37558,156.05584 c -44.54367,-7.68659 -74.81544,-46.53567 -71.23147,-88.64311 16.47988,20.05266 44.96766,36.25024 79.59141,42.22522 34.62374,5.97497 67.05549,0.2905 89.54332,-13.03345 -11.34391,40.78054 -53.3676,67.13793 -97.90326,59.45134 z M 427.46272,268.15821 c -6.59995,-6.99567 -16.54388,-12.36607 -28.26379,-14.3839 -11.71991,-2.02568 -22.93583,-0.31406 -31.58377,4.05921 -0.41599,-3.09348 -0.51199,-6.26548 0.072,-9.50028 3.07198,-17.03769 19.66386,-28.41448 37.07173,-25.41521 17.39987,3.00711 29.02378,19.2518 25.9598,36.2895 -0.58399,3.24265 -1.78398,6.18696 -3.25597,8.95068 z"
     id="path2"
     style="stroke-width:0.792535" />
</svg>
