<?xml version="1.0" encoding="UTF-8" standalone="no"?>
<svg
   xmlns:dc="http://purl.org/dc/elements/1.1/"
   xmlns:cc="http://creativecommons.org/ns#"
   xmlns:rdf="http://www.w3.org/1999/02/22-rdf-syntax-ns#"
   xmlns:svg="http://www.w3.org/2000/svg"
   xmlns="http://www.w3.org/2000/svg"
   xmlns:sodipodi="http://sodipodi.sourceforge.net/DTD/sodipodi-0.dtd"
   xmlns:inkscape="http://www.inkscape.org/namespaces/inkscape"
   viewBox="0 0 24 24"
   width="24"
   height="24"
   version="1.1"
   id="svg8"
   sodipodi:docname="atds3.svg"
   inkscape:version="1.0.2 (e86c870879, 2021-01-15)">
  <metadata
     id="metadata12">
    <rdf:RDF>
      <cc:Work
         rdf:about="">
        <dc:format>image/svg+xml</dc:format>
        <dc:type
           rdf:resource="http://purl.org/dc/dcmitype/StillImage" />
      </cc:Work>
    </rdf:RDF>
  </metadata>
  <sodipodi:namedview
     pagecolor="#ffffff"
     bordercolor="#666666"
     borderopacity="1"
     objecttolerance="10"
     gridtolerance="10"
     guidetolerance="10"
     inkscape:pageopacity="0"
     inkscape:pageshadow="2"
     inkscape:window-width="1366"
     inkscape:window-height="683"
     id="namedview10"
     showgrid="false"
     inkscape:zoom="21.625"
     inkscape:cx="12"
     inkscape:cy="12"
     inkscape:window-x="0"
     inkscape:window-y="0"
     inkscape:window-maximized="1"
     inkscape:current-layer="svg8" />
  <defs
     id="defs3051">
    <style
       type="text/css"
       id="current-color-scheme">
      .ColorScheme-Text {
        color:#eff0f1;
      }
      </style>
  </defs>
  <g
     transform="translate(1,1)"
     id="g6"
     style="fill:#800000">
    <path
       style="fill:#800000;fill-opacity:1;stroke:none"
       d="M 8 3 L 8 9 L 9 9 L 9 4 L 13 4 L 13 9 L 14 9 L 14 3 L 13 3 L 9 3 L 8 3 z M 5.7929688 10 L 5 10.816406 L 11 17 L 17 10.816406 L 16.207031 10 L 11 15.367188 L 5.7929688 10 z M 4 17 L 4 19 L 5 19 L 17 19 L 18 19 L 18 17 L 17 17 L 17 18 L 5 18 L 5 17 L 4 17 z "
       class="ColorScheme-Text"
       id="path4" />
  </g>
</svg>
